<svg width="88" height="14" viewBox="0 0 88 14" fill="none" xmlns="http://www.w3.org/2000/svg">
<path d="M5.23702 0.0764067C5.28251 0.0247186 5.3404 -0.00112539 5.40863 -0.00112539C5.47789 -0.00112539 5.53475 0.0247186 5.58024 0.0764067C5.62572 0.128095 5.64949 0.181846 5.64949 0.239736V10.2848C5.64949 10.445 5.56886 10.5246 5.40863 10.5246C5.2484 10.5246 5.1688 10.445 5.1688 10.2848V9.18591C4.92794 9.64386 4.59299 10.0067 4.16398 10.2755C3.73497 10.5443 3.26772 10.6797 2.76428 10.6797C1.97448 10.6797 1.31597 10.382 0.789782 9.78652C0.262564 9.19107 0 8.49328 0 7.69108C0 6.88992 0.262564 6.19213 0.789782 5.59668C1.31597 5.00123 1.97448 4.70352 2.76428 4.70352C3.26772 4.70352 3.73497 4.84101 4.16398 5.11599C4.59299 5.39097 4.92794 5.75692 5.1688 6.21488V0.239736C5.1688 0.181846 5.19154 0.128095 5.23702 0.0764067V0.0764067ZM1.133 9.44331C1.56821 9.94675 2.11197 10.199 2.76428 10.199C3.41761 10.199 3.96033 9.94675 4.39554 9.44331C4.83075 8.93884 5.04785 8.35579 5.04785 7.69108C5.04785 7.02741 4.83075 6.44437 4.39554 5.9399C3.96033 5.43645 3.41761 5.18421 2.76428 5.18421C2.11197 5.18421 1.56821 5.43645 1.133 5.9399C0.697785 6.44437 0.480689 7.02741 0.480689 7.69108C0.480689 8.35579 0.697785 8.93884 1.133 9.44331Z" fill="black"/>
<path d="M30.2448 4.87271C30.2903 4.82206 30.3482 4.79518 30.4164 4.79518C30.4857 4.79518 30.5426 4.82206 30.5881 4.87271C30.6335 4.9244 30.6573 4.97918 30.6573 5.03604V10.2731C30.6573 10.4333 30.5767 10.5139 30.4164 10.5139C30.2562 10.5139 30.1756 10.4333 30.1756 10.2731V9.17419C29.9244 9.62077 29.5863 9.98155 29.1625 10.2555C28.7397 10.5305 28.2755 10.668 27.7721 10.668C26.9823 10.668 26.3238 10.3703 25.7976 9.77481C25.2704 9.1804 25.0078 8.48157 25.0078 7.68041C25.0078 6.87925 25.2704 6.18042 25.7976 5.58601C26.3238 4.99056 26.9823 4.69284 27.7721 4.69284C28.2755 4.69284 28.7397 4.82929 29.1625 5.10427C29.5863 5.37925 29.9244 5.74003 30.1756 6.18662V5.03604C30.1756 4.97918 30.1994 4.9244 30.2448 4.87271V4.87271ZM26.1408 9.43159C26.576 9.93504 27.1198 10.1873 27.7721 10.1873C28.4244 10.1873 28.9681 9.93504 29.4034 9.43159C29.8386 8.92815 30.0557 8.34408 30.0557 7.68041C30.0557 7.01674 29.8386 6.43265 29.4034 5.92921C28.9681 5.42577 28.4244 5.17354 27.7721 5.17354C27.1198 5.17354 26.576 5.42577 26.1408 5.92921C25.7056 6.43265 25.4885 7.01674 25.4885 7.68041C25.4885 8.34408 25.7056 8.92815 26.1408 9.43159Z" fill="black"/>
<path d="M43.9478 4.8235C44.1081 4.8235 44.1877 4.9031 44.1877 5.06333V11.9316C44.1877 12.0691 44.1484 12.218 44.0677 12.3782C43.7824 13.1101 43.158 13.5691 42.1966 13.7521C42.0013 13.7976 41.7728 13.8203 41.5092 13.8203C41.1546 13.8203 40.7421 13.7428 40.2728 13.5888C39.8035 13.4337 39.4717 13.2362 39.2773 12.9964C39.2205 12.9396 39.1915 12.8817 39.1915 12.8248C39.1915 12.7555 39.2173 12.6987 39.269 12.6532C39.3207 12.6077 39.3745 12.5839 39.4313 12.5839C39.4551 12.5839 39.5575 12.647 39.7415 12.7731C39.9234 12.8992 40.1757 13.0254 40.4961 13.1504C40.8166 13.2766 41.1546 13.3396 41.5092 13.3396C41.7046 13.3396 41.9041 13.322 42.1108 13.2879C42.8655 13.1391 43.3638 12.8021 43.6046 12.2748C43.6728 12.1032 43.708 11.9885 43.708 11.9316V9.30485C43.4558 9.71732 43.1239 10.0461 42.7115 10.2921C42.3 10.5381 41.8586 10.6611 41.3893 10.6611C40.5995 10.6611 39.941 10.3634 39.4148 9.76798C38.8886 9.17253 38.625 8.47474 38.625 7.67358C38.625 6.87241 38.8886 6.17359 39.4148 5.57814C39.941 4.98373 40.5995 4.686 41.3893 4.686C41.8586 4.686 42.3 4.80903 42.7115 5.05506C43.1239 5.3011 43.4558 5.62983 43.708 6.0423V5.06333C43.708 4.9951 43.7328 4.93824 43.7845 4.89172C43.8362 4.8452 43.891 4.8235 43.9478 4.8235V4.8235ZM39.758 9.42476C40.1932 9.9282 40.737 10.1804 41.3893 10.1804C42.0416 10.1804 42.5853 9.9282 43.0206 9.42476C43.4558 8.92132 43.6729 8.33725 43.6729 7.67358C43.6729 7.00887 43.4558 6.42583 43.0206 5.92136C42.5853 5.41791 42.0416 5.16671 41.3893 5.16671C40.737 5.16671 40.1932 5.41791 39.758 5.92136C39.3228 6.42583 39.1057 7.00887 39.1057 7.67358C39.1057 8.33725 39.3228 8.92132 39.758 9.42476Z" fill="black"/>
<path d="M55.7794 4.82628C55.951 4.82628 56.0368 4.89967 56.0368 5.04956C56.0368 5.19739 55.9624 5.28422 55.8135 5.30697C55.1385 5.40931 54.6288 5.70703 54.2856 6.1991C53.9424 6.69117 53.7698 7.29283 53.7698 8.00199V10.3031C53.7698 10.4634 53.6901 10.543 53.5289 10.543C53.3697 10.543 53.2891 10.4634 53.2891 10.3031V5.06611C53.2891 4.90587 53.3697 4.82628 53.5289 4.82628C53.6901 4.82628 53.7698 4.90587 53.7698 5.06611V6.13088C53.9879 5.7763 54.2794 5.46928 54.6453 5.21187C55.0123 4.95446 55.3896 4.82628 55.7794 4.82628" fill="black"/>
<path d="M69.4948 4.87662C69.5403 4.82493 69.5982 4.79909 69.6664 4.79909C69.7347 4.79909 69.7926 4.82493 69.8381 4.87662C69.8846 4.92727 69.9063 4.98206 69.9063 5.03995V10.277C69.9063 10.4372 69.8267 10.5168 69.6664 10.5168C69.5062 10.5168 69.4266 10.4372 69.4266 10.277V9.17706C69.1744 9.62365 68.8363 9.98443 68.4135 10.2594C67.9897 10.5334 67.5255 10.6719 67.0221 10.6719C66.2323 10.6719 65.5738 10.3742 65.0476 9.77872C64.5214 9.18327 64.2578 8.48445 64.2578 7.68328C64.2578 6.88212 64.5214 6.18433 65.0476 5.58888C65.5738 4.99343 66.2323 4.69571 67.0221 4.69571C67.5255 4.69571 67.9897 4.8332 68.4135 5.10818C68.8363 5.38316 69.1744 5.7429 69.4266 6.18949V5.03995C69.4266 4.98206 69.4494 4.92727 69.4948 4.87662V4.87662ZM65.3908 9.4355C65.826 9.93894 66.3698 10.1902 67.0221 10.1902C67.6744 10.1902 68.2182 9.93894 68.6534 9.4355C69.0886 8.93103 69.3056 8.34799 69.3056 7.68328C69.3056 7.01961 69.0886 6.43553 68.6534 5.93208C68.2182 5.42864 67.6744 5.17641 67.0221 5.17641C66.3698 5.17641 65.826 5.42864 65.3908 5.93208C64.9556 6.43553 64.7385 7.01961 64.7385 7.68328C64.7385 8.34799 64.9556 8.93103 65.3908 9.4355Z" fill="black"/>
<path d="M85.6977 4.72485C86.3728 4.72485 86.9103 4.97399 87.3104 5.47123C87.7115 5.9695 87.912 6.56184 87.912 7.24826V10.3227C87.912 10.3909 87.8862 10.4488 87.8345 10.4943C87.7828 10.5398 87.7291 10.5625 87.6722 10.5625C87.512 10.5625 87.4314 10.4829 87.4314 10.3227V7.24826C87.4314 6.68796 87.2794 6.20726 86.9765 5.80616C86.6736 5.4061 86.2467 5.20554 85.6977 5.20554C85.033 5.20554 84.5348 5.4888 84.204 6.0553C83.8711 6.62284 83.7057 7.25447 83.7057 7.95329V10.3227C83.7057 10.3909 83.6798 10.4488 83.6281 10.4943C83.5765 10.5398 83.5217 10.5625 83.4648 10.5625C83.3046 10.5625 83.225 10.4829 83.225 10.3227V7.24826C83.225 6.68796 83.073 6.20726 82.7691 5.80616C82.4662 5.4061 82.0393 5.20554 81.4903 5.20554C80.7915 5.20554 80.2767 5.45158 79.9448 5.94365C79.613 6.43572 79.4579 7.08286 79.4807 7.88402V8.00394V10.3227C79.4807 10.4829 79.4011 10.5625 79.2409 10.5625C79.0806 10.5625 79 10.4829 79 10.3227V5.06806C79 4.90782 79.0806 4.82823 79.2409 4.82823C79.4011 4.82823 79.4807 4.90782 79.4807 5.06806V5.94365C79.9397 5.13111 80.6085 4.72485 81.4903 4.72485C81.971 4.72485 82.3918 4.86234 82.7526 5.13732C83.1133 5.41127 83.3728 5.78342 83.5341 6.25274C83.7398 5.79479 84.0313 5.42574 84.4097 5.14559C84.787 4.86544 85.216 4.72485 85.6977 4.72485" fill="black"/>
<path fill-rule="evenodd" clip-rule="evenodd" d="M16.4551 4.23784C16.3249 4.2151 16.1998 4.30193 16.1771 4.43219L15.1598 10.1985C15.1371 10.3288 15.225 10.4538 15.3552 10.4766C15.4855 10.5004 15.6106 10.4125 15.6333 10.2822L16.6505 4.51591C16.6733 4.38566 16.5854 4.26058 16.4551 4.23784Z" fill="black"/>
</svg>
