<svg width="27" height="27" viewBox="0 0 27 27" fill="none" xmlns="http://www.w3.org/2000/svg">
<path d="M25.7074 24.4093V20.5389C25.7231 19.9062 25.5053 19.2897 25.0954 18.8069C24.6855 18.324 24.112 18.0083 23.4841 17.9199C22.2431 17.7566 21.0247 17.4536 19.8519 17.0168C19.3893 16.8432 18.8865 16.8057 18.4031 16.9086C17.9197 17.0115 17.476 17.2505 17.1245 17.5974L15.4829 19.2358C12.2468 17.3993 9.56741 14.725 7.72732 11.4951L9.36892 9.8566C9.71646 9.50582 9.95596 9.06297 10.0591 8.5805C10.1621 8.09804 10.1245 7.59619 9.95059 7.13442C9.51298 5.96392 9.20944 4.74777 9.04577 3.50915C8.95798 2.88918 8.6473 2.32222 8.17167 1.91395C7.69603 1.50568 7.08788 1.28397 6.46057 1.29013H2.58277C2.22386 1.29047 1.86896 1.36539 1.54066 1.51013C1.21236 1.65486 0.917847 1.86624 0.675879 2.13081C0.43391 2.39537 0.249786 2.70732 0.135228 3.0468C0.0206708 3.38628 -0.0218098 3.74585 0.0104917 4.10261C0.434779 8.0904 1.79425 11.9224 3.97878 15.288C5.96335 18.4052 8.61124 21.048 11.7344 23.0288C15.0913 25.2016 18.912 26.5582 22.8895 26.9895C23.2481 27.0219 23.6094 26.9791 23.9504 26.864C24.2914 26.7489 24.6046 26.564 24.8699 26.3211C25.1352 26.0782 25.3467 25.7826 25.4909 25.4534C25.6351 25.1242 25.7089 24.7686 25.7074 24.4093Z" fill="#F1B99D"/>
</svg>
