<svg width="31" height="17" viewBox="0 0 31 17" fill="none" xmlns="http://www.w3.org/2000/svg">
<path fill-rule="evenodd" clip-rule="evenodd" d="M16.6673 16.9289C16.6673 16.9289 17.2152 16.8692 17.4958 16.5733C17.7527 16.3022 17.7438 15.7907 17.7438 15.7907C17.7438 15.7907 17.7096 13.4019 18.8396 13.0492C19.9531 12.7024 21.383 15.3593 22.9004 16.3809C24.0466 17.1534 24.9167 16.9843 24.9167 16.9843L28.9716 16.9289C28.9716 16.9289 31.0919 16.8007 30.0867 15.164C30.0035 15.0299 29.5002 13.9528 27.0726 11.7404C24.5292 9.42457 24.8707 9.79913 27.9323 5.79261C29.7972 3.35285 30.5425 1.86335 30.3094 1.22644C30.0882 0.617231 28.7162 0.779007 28.7162 0.779007L24.1521 0.806698C24.1521 0.806698 23.8135 0.761518 23.5626 0.908719C23.3176 1.05301 23.1588 1.38968 23.1588 1.38968C23.1588 1.38968 22.4372 3.27707 21.4735 4.88317C19.4409 8.27027 18.6287 8.44954 18.2961 8.23966C17.5226 7.7485 17.7156 6.2692 17.7156 5.21838C17.7156 1.93476 18.2234 0.56622 16.7282 0.212061C16.2323 0.0940081 15.867 0.0167636 14.5976 0.00364658C12.9688 -0.0123853 11.5909 0.00947633 10.8099 0.384039C10.2903 0.633262 9.88936 1.19001 10.1344 1.22207C10.4358 1.26142 11.1188 1.40279 11.481 1.88666C11.9487 2.51191 11.9324 3.91397 11.9324 3.91397C11.9324 3.91397 12.2011 7.77911 11.3043 8.25861C10.6897 8.58799 9.84631 7.91611 8.0334 4.84236C7.10542 3.26832 6.40461 1.52813 6.40461 1.52813C6.40461 1.52813 6.2695 1.20312 6.02748 1.02823C5.73498 0.8169 5.32667 0.751315 5.32667 0.751315L0.989656 0.779007C0.989656 0.779007 0.337842 0.796496 0.0987941 1.07487C-0.113528 1.32118 0.0824616 1.83274 0.0824616 1.83274C0.0824616 1.83274 3.47813 9.63152 7.32368 13.5622C10.85 17.1651 14.8529 16.9289 14.8529 16.9289H16.6673Z" fill="#4C5C6B"/>
</svg>
