<svg width="140" height="55" viewBox="0 0 140 55" fill="none" xmlns="http://www.w3.org/2000/svg">
<path d="M2.85 24V3H20.91V6.09H6.63V24H2.85ZM34.9903 8.28H40.2703V24H36.7903V10.65L26.2003 24H20.9503V8.28H24.4003V21.63L34.9903 8.28ZM43.898 24V8.28H62.378V24H58.778V11.25H47.498V24H43.898ZM77.1253 7.92C79.8853 7.92 82.1053 8.65 83.7853 10.11C85.4853 11.57 86.3353 13.58 86.3353 16.14C86.3353 18.7 85.4853 20.71 83.7853 22.17C82.1053 23.63 79.8853 24.36 77.1253 24.36C73.6253 24.36 71.1253 23.24 69.6253 21V30H66.0253V8.28H69.3253V11.76C70.7253 9.2 73.3253 7.92 77.1253 7.92ZM76.1053 21.6C78.1453 21.6 79.7653 21.1 80.9653 20.1C82.1653 19.1 82.7653 17.78 82.7653 16.14C82.7653 14.5 82.1653 13.18 80.9653 12.18C79.7653 11.18 78.1453 10.68 76.1053 10.68C74.0453 10.68 72.4153 11.18 71.2153 12.18C70.0353 13.18 69.4453 14.5 69.4453 16.14C69.4453 17.78 70.0353 19.1 71.2153 20.1C72.4153 21.1 74.0453 21.6 76.1053 21.6ZM90.8916 22.2C89.0116 20.74 88.0716 18.72 88.0716 16.14C88.0716 13.56 89.0116 11.55 90.8916 10.11C92.7916 8.65 95.3216 7.92 98.4816 7.92C101.642 7.92 104.162 8.65 106.042 10.11C107.942 11.55 108.892 13.56 108.892 16.14C108.892 18.72 107.942 20.74 106.042 22.2C104.162 23.64 101.642 24.36 98.4816 24.36C95.3216 24.36 92.7916 23.64 90.8916 22.2ZM93.4716 12.18C92.2516 13.18 91.6416 14.5 91.6416 16.14C91.6416 17.78 92.2516 19.1 93.4716 20.1C94.6916 21.1 96.3616 21.6 98.4816 21.6C100.582 21.6 102.242 21.1 103.462 20.1C104.702 19.08 105.322 17.76 105.322 16.14C105.322 14.52 104.702 13.21 103.462 12.21C102.242 11.19 100.582 10.68 98.4816 10.68C96.3616 10.68 94.6916 11.18 93.4716 12.18ZM131.908 8.28H137.908V24H134.458V10.38L127.108 24H122.398L115.048 10.41V24H111.598V8.28H117.628L124.798 22.14L131.908 8.28Z" fill="#4C5C6B"/>
<path d="M15.22 46.26L17.12 46.38C16.88 47.86 16.1067 49.04 14.8 49.92C13.4933 50.8 11.7267 51.24 9.5 51.24C6.80667 51.24 4.72 50.58 3.24 49.26C1.77333 47.9267 1.04 46.1733 1.04 44C1.04 41.84 1.76667 40.0933 3.22 38.76C4.67333 37.4267 6.70667 36.76 9.32 36.76C11.4 36.76 13.1267 37.18 14.5 38.02C15.8733 38.8467 16.6933 39.96 16.96 41.36L15.04 41.5C14.8267 40.5667 14.1933 39.82 13.14 39.26C12.0867 38.6867 10.8133 38.4 9.32 38.4C7.33333 38.4 5.78667 38.9267 4.68 39.98C3.58667 41.02 3.04 42.36 3.04 44C3.04 45.64 3.6 46.9867 4.72 48.04C5.85333 49.08 7.44667 49.6 9.5 49.6C11.1133 49.6 12.42 49.2867 13.42 48.66C14.42 48.0333 15.02 47.2333 15.22 46.26ZM31.4492 46.06V46.3H20.1492C20.2826 47.4733 20.7959 48.3667 21.6892 48.98C22.5826 49.5933 23.7492 49.9 25.1892 49.9C26.2026 49.9 27.0692 49.7467 27.7892 49.44C28.5226 49.1333 29.0559 48.72 29.3892 48.2L31.2092 48.28C30.8359 49.2133 30.1292 49.94 29.0892 50.46C28.0626 50.98 26.7626 51.24 25.1892 51.24C23.0426 51.24 21.3492 50.78 20.1092 49.86C18.8692 48.9267 18.2492 47.56 18.2492 45.76C18.2492 43.9733 18.8626 42.6133 20.0892 41.68C21.3292 40.7467 22.9626 40.28 24.9892 40.28C27.0692 40.28 28.6626 40.76 29.7692 41.72C30.8892 42.6667 31.4492 44.1133 31.4492 46.06ZM24.9892 41.62C23.6559 41.62 22.5559 41.9133 21.6892 42.5C20.8359 43.0867 20.3292 43.9467 20.1692 45.08H29.5692C29.5159 44.0133 29.0759 43.1733 28.2492 42.56C27.4359 41.9333 26.3492 41.62 24.9892 41.62ZM40.3702 40.28C42.2102 40.28 43.6902 40.7667 44.8102 41.74C45.9302 42.7133 46.4902 44.0533 46.4902 45.76C46.4902 47.4667 45.9302 48.8067 44.8102 49.78C43.6902 50.7533 42.2102 51.24 40.3702 51.24C39.1968 51.24 38.1635 51.0333 37.2702 50.62C36.3768 50.1933 35.6902 49.5867 35.2102 48.8V55H33.3102V40.52H35.0502V43.02C35.4902 42.1267 36.1635 41.4467 37.0702 40.98C37.9902 40.5133 39.0902 40.28 40.3702 40.28ZM36.4102 48.68C37.2635 49.4133 38.4168 49.78 39.8702 49.78C41.3235 49.78 42.4768 49.4133 43.3302 48.68C44.1835 47.9467 44.6102 46.9733 44.6102 45.76C44.6102 44.5467 44.1835 43.5733 43.3302 42.84C42.4768 42.1067 41.3235 41.74 39.8702 41.74C38.4168 41.74 37.2635 42.1067 36.4102 42.84C35.5568 43.5733 35.1302 44.5467 35.1302 45.76C35.1302 46.9733 35.5568 47.9467 36.4102 48.68ZM56.7333 45.58C57.9199 45.6867 58.7999 45.9467 59.3733 46.36C59.9599 46.7733 60.2533 47.3733 60.2533 48.16C60.2533 48.9867 59.8933 49.6667 59.1733 50.2C58.4533 50.7333 57.2399 51 55.5333 51H48.4133V40.52H55.2133C56.7866 40.52 57.9399 40.76 58.6733 41.24C59.4199 41.72 59.7933 42.3533 59.7933 43.14C59.7933 44.5 58.7733 45.3133 56.7333 45.58ZM50.3133 41.88V45.04H54.9733C56.9333 45.04 57.9133 44.5133 57.9133 43.46C57.9133 42.4067 56.8866 41.88 54.8333 41.88H50.3133ZM55.1933 49.64C56.3533 49.64 57.1666 49.4933 57.6333 49.2C58.1133 48.8933 58.3533 48.4733 58.3533 47.94C58.3533 47.38 58.0999 46.96 57.5933 46.68C57.0866 46.4 56.2333 46.26 55.0333 46.26H50.3133V49.64H55.1933ZM71.7687 40.52H74.5687V51H72.7287V41.76L64.9687 51H62.1687V40.52H64.0087V49.76L71.7687 40.52ZM89.3342 47.42C89.0676 48.6333 88.3742 49.5733 87.2542 50.24C86.1476 50.9067 84.7742 51.24 83.1342 51.24C81.0809 51.24 79.4542 50.7667 78.2542 49.82C77.0676 48.86 76.4742 47.5067 76.4742 45.76C76.4742 44.0133 77.0676 42.6667 78.2542 41.72C79.4409 40.76 81.0476 40.28 83.0742 40.28C84.6609 40.28 86.0142 40.6 87.1342 41.24C88.2676 41.88 88.9476 42.7933 89.1742 43.98L87.3742 44.08C87.1476 43.32 86.6409 42.74 85.8542 42.34C85.0676 41.94 84.1409 41.74 83.0742 41.74C81.6609 41.74 80.5209 42.1 79.6542 42.82C78.8009 43.54 78.3742 44.52 78.3742 45.76C78.3742 47 78.8076 47.98 79.6742 48.7C80.5409 49.42 81.6942 49.78 83.1342 49.78C84.2276 49.78 85.1609 49.5667 85.9342 49.14C86.7209 48.7133 87.2342 48.1067 87.4742 47.32L89.3342 47.42Z" fill="#AFAFAF"/>
</svg>
